<svg width="56" height="56" viewBox="0 0 56 56" fill="none" xmlns="http://www.w3.org/2000/svg">
<rect width="56" height="56" rx="12" fill="#4CA1A5" fill-opacity="0.2"/>
<path d="M35.2807 20.1901V21.0786L31.0306 18.6173C29.4217 17.6929 27.1766 17.6929 25.5798 18.6173L21.3296 21.0906V20.1901C21.3296 17.4888 22.8063 16 25.5077 16H31.1026C33.804 16 35.2807 17.4888 35.2807 20.1901Z" fill="#4CA1A5"/>
<path d="M35.3164 23.1674L35.1483 23.0833L33.5154 22.1469L30.1297 20.1899C29.0972 19.5895 27.5124 19.5895 26.4798 20.1899L23.0941 22.1349L21.4613 23.0953L21.2452 23.2034C19.1441 24.6201 19 24.8843 19 27.1534V32.5802C19 34.8494 19.1441 35.1135 21.2932 36.5662L26.4798 39.5558C26.9961 39.8679 27.6444 40 28.3048 40C28.9531 40 29.6134 39.8559 30.1297 39.5558L35.3644 36.5302C37.4775 35.1135 37.6095 34.8614 37.6095 32.5802V27.1534C37.6095 24.8843 37.4655 24.6201 35.3164 23.1674ZM31.6545 29.8068L30.9221 30.7072C30.802 30.8393 30.718 31.0914 30.73 31.2715L30.802 32.4241C30.8501 33.1325 30.3458 33.4927 29.6855 33.2405L28.6169 32.8083C28.4488 32.7483 28.1727 32.7483 28.0046 32.8083L26.9361 33.2285C26.2757 33.4927 25.7715 33.1205 25.8195 32.4121L25.8915 31.2595C25.9035 31.0794 25.8195 30.8273 25.6994 30.6952L24.9551 29.8068C24.4988 29.2665 24.7029 28.6662 25.3873 28.4861L26.5038 28.198C26.6839 28.1499 26.888 27.9818 26.9841 27.8378L27.6084 26.8773C27.9926 26.277 28.6049 26.277 29.0011 26.8773L29.6254 27.8378C29.7215 27.9939 29.9376 28.1499 30.1057 28.198L31.2223 28.4861C31.9066 28.6662 32.1107 29.2665 31.6545 29.8068Z" fill="#4CA1A5"/>
</svg>
