<svg width="56" height="56" viewBox="0 0 56 56" fill="none" xmlns="http://www.w3.org/2000/svg">
<rect width="56" height="56" rx="12" fill="#FFB057" fill-opacity="0.2"/>
<path d="M31.5 31.75H30.5977C29.7048 32.1618 28.7332 32.375 27.75 32.375C26.7668 32.375 25.7952 32.1618 24.9023 31.75H24C22.6739 31.75 21.4021 32.2768 20.4645 33.2145C19.5268 34.1521 19 35.4239 19 36.75C19 37.0815 19.1317 37.3995 19.3661 37.6339C19.6005 37.8683 19.9185 38 20.25 38H35.25C35.5815 38 35.8995 37.8683 36.1339 37.6339C36.3683 37.3995 36.5 37.0815 36.5 36.75C36.5 35.4239 35.9732 34.1521 35.0355 33.2145C34.0979 32.2768 32.8261 31.75 31.5 31.75ZM20.875 26.75C21.0408 26.75 21.1997 26.6842 21.3169 26.5669C21.4342 26.4497 21.5 26.2908 21.5 26.125V25.5C21.5 22.0539 24.3039 19.25 27.75 19.25C31.1961 19.25 34 22.0539 34 25.5V26.125C33.9991 26.9535 33.6695 27.7478 33.0837 28.3337C32.4978 28.9195 31.7035 29.2491 30.875 29.25H29.625C29.625 28.9185 29.4933 28.6005 29.2589 28.3661C29.0245 28.1317 28.7065 28 28.375 28H27.125C26.7935 28 26.4755 28.1317 26.2411 28.3661C26.0067 28.6005 25.875 28.9185 25.875 29.25C25.875 29.5815 26.0067 29.8995 26.2411 30.1339C26.4755 30.3683 26.7935 30.5 27.125 30.5H30.875C32.0349 30.4986 33.1468 30.0372 33.967 29.217C34.7872 28.3968 35.2486 27.2849 35.25 26.125V25.5C35.25 21.3645 31.8855 18 27.75 18C23.6145 18 20.25 21.3645 20.25 25.5V26.125C20.25 26.2908 20.3158 26.4497 20.4331 26.5669C20.5503 26.6842 20.7092 26.75 20.875 26.75ZM27.125 26.75H28.375C28.8137 26.7501 29.2447 26.8657 29.6247 27.0851C30.0046 27.3045 30.3201 27.62 30.5395 28H30.875C31.3721 27.9995 31.8487 27.8018 32.2003 27.4503C32.5518 27.0987 32.7495 26.6221 32.75 26.125V25.5C32.75 24.1739 32.2232 22.9021 31.2855 21.9645C30.3479 21.0268 29.0761 20.5 27.75 20.5C26.4239 20.5 25.1521 21.0268 24.2145 21.9645C23.2768 22.9021 22.75 24.1739 22.75 25.5C22.75 27.0789 23.4961 28.4688 24.6387 29.3855C24.6363 29.3398 24.625 29.2965 24.625 29.25C24.6257 28.5872 24.8893 27.9517 25.358 27.483C25.8267 27.0143 26.4622 26.7507 27.125 26.75Z" fill="#FFB057"/>
</svg>
