<svg width="52" height="40" viewBox="0 0 52 40" fill="none" xmlns="http://www.w3.org/2000/svg">
<path d="M36.6491 33.2522C35.9407 32.0774 35.2133 30.912 34.486 29.7466L32.9369 27.2559C31.8412 25.4984 30.736 23.7503 29.6497 21.9645L28.9696 20.8837L28.4596 20.0566C28.6485 19.7371 28.8468 19.4175 29.0547 19.1167C29.3664 18.6374 29.697 18.1769 29.9992 17.6882C30.4526 17.0397 30.9438 16.3818 31.3405 15.7051C32.0584 14.5772 32.7574 13.4494 33.4564 12.3122L34.401 10.6768C34.5179 10.5271 34.6252 10.3701 34.7222 10.2069L35.2984 9.31401C36.4602 7.3779 37.7259 5.27261 38.9539 3.28011L40.9659 0H29.5742L16.7656 20.1036L29.1208 39.991H40.7297L36.6491 33.2522Z" fill="#2D303D"/>
<path d="M11.7859 28.1353H0L0.170399 28.4085L6.1533 38.294C6.17886 38.3296 6.20104 38.3675 6.21957 38.4071L6.2953 38.5296L7.18517 39.9903H18.9806L11.7859 28.1353Z" fill="#2D303D"/>
<path d="M48.3078 40.0002C47.4059 40.0002 46.6471 39.6922 46.0312 39.0764C45.4154 38.4605 45.1074 37.6907 45.1074 36.7668C45.1074 35.821 45.4154 35.0622 46.0312 34.4903C46.6471 33.8964 47.4059 33.5995 48.3078 33.5995C49.2096 33.5995 49.9684 33.8964 50.5843 34.4903C51.2002 35.0622 51.5081 35.821 51.5081 36.7668C51.5081 37.6907 51.2002 38.4605 50.5843 39.0764C49.9684 39.6922 49.2096 40.0002 48.3078 40.0002Z" fill="#2D303D"/>
</svg>
