<svg width="210" height="50" viewBox="0 0 210 50" fill="none" xmlns="http://www.w3.org/2000/svg">
<path d="M45.8124 41.5653C44.9268 40.0968 44.0177 38.64 43.1085 37.1832L41.1721 34.0699C39.8025 31.873 38.421 29.6878 37.0632 27.4557L36.213 26.1046L35.5754 25.0708C35.8116 24.6713 36.0595 24.2719 36.3193 23.8959C36.7089 23.2968 37.1222 22.7211 37.5 22.1102C38.0668 21.2996 38.6808 20.4772 39.1767 19.6313C40.074 18.2215 40.9478 16.8117 41.8215 15.3902L43.0022 13.346C43.1484 13.1588 43.2825 12.9627 43.4037 12.7586L44.1239 11.6425C45.5762 9.22237 47.1584 6.59077 48.6933 4.10014L51.2083 0H36.9687L20.958 25.1295L36.4019 49.9888H50.9131L45.8124 41.5653Z" fill="#2D303D"/>
<path d="M14.7324 35.1691H0L0.212999 35.5107L7.69163 47.8675C7.72357 47.912 7.7513 47.9593 7.77446 48.0089L7.86913 48.162L8.98146 49.9879H23.7257L14.7324 35.1691Z" fill="#2D303D"/>
<path d="M60.3852 50.0001C59.2579 50.0001 58.3094 49.6152 57.5395 48.8454C56.7697 48.0755 56.3848 47.1132 56.3848 45.9585C56.3848 44.7762 56.7697 43.8276 57.5395 43.1128C58.3094 42.3704 59.2579 41.9993 60.3852 41.9993C61.5125 41.9993 62.461 42.3704 63.2309 43.1128C64.0007 43.8276 64.3856 44.7762 64.3856 45.9585C64.3856 47.1132 64.0007 48.0755 63.2309 48.8454C62.461 49.6152 61.5125 50.0001 60.3852 50.0001Z" fill="#2D303D"/>
<path d="M89.8013 42.4533L87.2942 45.0667V49.7867H83V31.12H87.2942V39.84L95.5624 31.12H100.363L92.6285 39.44L100.817 49.7867H95.7758L89.8013 42.4533Z" fill="#2D303D"/>
<path d="M111.172 35.2267C112.95 35.2267 114.381 35.76 115.466 36.8267C116.568 37.8933 117.119 39.4756 117.119 41.5733V49.7867H112.959V42.2133C112.959 41.0756 112.71 40.2311 112.212 39.68C111.714 39.1111 110.994 38.8267 110.051 38.8267C109.002 38.8267 108.167 39.1556 107.544 39.8133C106.922 40.4533 106.611 41.4133 106.611 42.6933V49.7867H102.45V30H106.611V36.9333C107.162 36.3822 107.829 35.9644 108.611 35.68C109.394 35.3778 110.247 35.2267 111.172 35.2267Z" fill="#2D303D"/>
<path d="M127.875 50C126.364 50 125.004 49.6889 123.795 49.0667C122.603 48.4267 121.67 47.5467 120.994 46.4267C120.318 45.3067 119.98 44.0356 119.98 42.6133C119.98 41.1911 120.318 39.92 120.994 38.8C121.67 37.68 122.603 36.8089 123.795 36.1867C125.004 35.5467 126.364 35.2267 127.875 35.2267C129.387 35.2267 130.738 35.5467 131.929 36.1867C133.121 36.8089 134.054 37.68 134.73 38.8C135.406 39.92 135.743 41.1911 135.743 42.6133C135.743 44.0356 135.406 45.3067 134.73 46.4267C134.054 47.5467 133.121 48.4267 131.929 49.0667C130.738 49.6889 129.387 50 127.875 50ZM127.875 46.5867C128.942 46.5867 129.813 46.2311 130.489 45.52C131.183 44.7911 131.529 43.8222 131.529 42.6133C131.529 41.4044 131.183 40.4444 130.489 39.7333C129.813 39.0044 128.942 38.64 127.875 38.64C126.808 38.64 125.928 39.0044 125.235 39.7333C124.541 40.4444 124.195 41.4044 124.195 42.6133C124.195 43.8222 124.541 44.7911 125.235 45.52C125.928 46.2311 126.808 46.5867 127.875 46.5867Z" fill="#2D303D"/>
<path d="M147.246 35.2267C149.024 35.2267 150.456 35.76 151.54 36.8267C152.643 37.8933 153.194 39.4756 153.194 41.5733V49.7867H149.033V42.2133C149.033 41.0756 148.784 40.2311 148.287 39.68C147.789 39.1111 147.069 38.8267 146.126 38.8267C145.077 38.8267 144.241 39.1556 143.619 39.8133C142.997 40.4533 142.685 41.4133 142.685 42.6933V49.7867H138.525V35.44H142.499V37.12C143.05 36.5156 143.735 36.0533 144.552 35.7333C145.37 35.3956 146.268 35.2267 147.246 35.2267Z" fill="#2D303D"/>
<path d="M166.221 49.0933C165.812 49.3956 165.305 49.6267 164.701 49.7867C164.114 49.9289 163.491 50 162.833 50C161.126 50 159.802 49.5644 158.859 48.6933C157.935 47.8222 157.472 46.5422 157.472 44.8533V38.96H155.259V35.76H157.472V32.2667H161.633V35.76H165.207V38.96H161.633V44.8C161.633 45.4044 161.784 45.8756 162.087 46.2133C162.407 46.5333 162.851 46.6933 163.42 46.6933C164.078 46.6933 164.638 46.5156 165.101 46.16L166.221 49.0933Z" fill="#2D303D"/>
<path d="M182.17 42.6667C182.17 42.72 182.143 43.0933 182.09 43.7867H171.234C171.43 44.6756 171.892 45.3778 172.621 45.8933C173.35 46.4089 174.257 46.6667 175.342 46.6667C176.089 46.6667 176.746 46.56 177.315 46.3467C177.902 46.1156 178.445 45.76 178.942 45.28L181.156 47.68C179.805 49.2267 177.831 50 175.235 50C173.617 50 172.186 49.6889 170.941 49.0667C169.696 48.4267 168.736 47.5467 168.06 46.4267C167.385 45.3067 167.047 44.0356 167.047 42.6133C167.047 41.2089 167.376 39.9467 168.034 38.8267C168.709 37.6889 169.625 36.8089 170.781 36.1867C171.954 35.5467 173.261 35.2267 174.702 35.2267C176.106 35.2267 177.378 35.5289 178.516 36.1333C179.654 36.7378 180.543 37.6089 181.183 38.7467C181.841 39.8667 182.17 41.1733 182.17 42.6667ZM174.728 38.3733C173.786 38.3733 172.995 38.64 172.354 39.1733C171.714 39.7067 171.323 40.4356 171.181 41.36H178.249C178.107 40.4533 177.716 39.7333 177.075 39.2C176.435 38.6489 175.653 38.3733 174.728 38.3733Z" fill="#2D303D"/>
<path d="M193.671 49.7867L190.524 45.3867L187.27 49.7867H182.735L188.257 42.56L182.922 35.44H187.59L190.63 39.6267L193.751 35.44H198.178L192.844 42.4533L198.392 49.7867H193.671Z" fill="#2D303D"/>
<path d="M209.667 49.0933C209.258 49.3956 208.751 49.6267 208.146 49.7867C207.56 49.9289 206.937 50 206.279 50C204.572 50 203.248 49.5644 202.305 48.6933C201.381 47.8222 200.918 46.5422 200.918 44.8533V38.96H198.705V35.76H200.918V32.2667H205.079V35.76H208.653V38.96H205.079V44.8C205.079 45.4044 205.23 45.8756 205.533 46.2133C205.853 46.5333 206.297 46.6933 206.866 46.6933C207.524 46.6933 208.084 46.5156 208.546 46.16L209.667 49.0933Z" fill="#2D303D"/>
</svg>
