<svg width="120" height="24" viewBox="0 0 120 24" fill="none" xmlns="http://www.w3.org/2000/svg">
<path d="M10.9271 2.66589L8.48599 7.61542L3.02432 8.41168C2.04488 8.55373 1.65235 9.76121 2.36263 10.4528L6.31403 14.3033L5.37945 19.7425C5.21123 20.7257 6.24674 21.4621 7.11403 21.0023L12 18.4341L16.886 21.0023C17.7533 21.4584 18.7888 20.7257 18.6206 19.7425L17.686 14.3033L21.6374 10.4528C22.3476 9.76121 21.9551 8.55373 20.9757 8.41168L15.514 7.61542L13.0729 2.66589C12.6355 1.78365 11.3682 1.77244 10.9271 2.66589Z" fill="#FFB057"/>
<path d="M34.9271 2.66589L32.486 7.61542L27.0243 8.41168C26.0449 8.55373 25.6524 9.76121 26.3626 10.4528L30.314 14.3033L29.3795 19.7425C29.2112 20.7257 30.2467 21.4621 31.114 21.0023L36 18.4341L40.886 21.0023C41.7533 21.4584 42.7888 20.7257 42.6206 19.7425L41.686 14.3033L45.6374 10.4528C46.3476 9.76121 45.9551 8.55373 44.9757 8.41168L39.514 7.61542L37.0729 2.66589C36.6355 1.78365 35.3682 1.77244 34.9271 2.66589Z" fill="#FFB057"/>
<path d="M58.9271 2.66589L56.486 7.61542L51.0243 8.41168C50.0449 8.55373 49.6524 9.76121 50.3626 10.4528L54.314 14.3033L53.3795 19.7425C53.2112 20.7257 54.2467 21.4621 55.114 21.0023L60 18.4341L64.886 21.0023C65.7533 21.4584 66.7888 20.7257 66.6206 19.7425L65.686 14.3033L69.6374 10.4528C70.3476 9.76121 69.9551 8.55373 68.9757 8.41168L63.514 7.61542L61.0729 2.66589C60.6355 1.78365 59.3682 1.77244 58.9271 2.66589Z" fill="#FFB057"/>
<path d="M82.9271 2.66589L80.486 7.61542L75.0243 8.41168C74.0449 8.55373 73.6524 9.76121 74.3626 10.4528L78.314 14.3033L77.3795 19.7425C77.2112 20.7257 78.2467 21.4621 79.114 21.0023L84 18.4341L88.886 21.0023C89.7533 21.4584 90.7888 20.7257 90.6206 19.7425L89.686 14.3033L93.6374 10.4528C94.3476 9.76121 93.9551 8.55373 92.9757 8.41168L87.514 7.61542L85.0729 2.66589C84.6355 1.78365 83.3682 1.77244 82.9271 2.66589Z" fill="#FFB057"/>
<path d="M107.215 2.66589L104.774 7.61542L99.3124 8.41168C98.333 8.55373 97.9404 9.76121 98.6507 10.4528L102.602 14.3033L101.668 19.7425C101.499 20.7257 102.535 21.4621 103.402 21.0023L108.288 18.4341L113.174 21.0023C114.041 21.4584 115.077 20.7257 114.909 19.7425L113.974 14.3033L117.925 10.4528C118.636 9.76121 118.243 8.55373 117.264 8.41168L111.802 7.61542L109.361 2.66589C108.924 1.78365 107.656 1.77244 107.215 2.66589Z" fill="#E0E1E5"/>
<path d="M108.001 2C107.575 2 107.149 2.22059 106.928 2.66551L104.487 7.61567L99.0244 8.40829C98.0449 8.55037 97.6523 9.758 98.3627 10.4497L102.315 14.3006L101.38 19.7406C101.212 20.7164 102.24 21.4604 103.115 21.0005L108.001 18.4357V2Z" fill="#FFB057"/>
</svg>
